<?xml version="1.0" encoding="UTF-8"?>
<svg xmlns="http://www.w3.org/2000/svg"
     width="174"
     height="262"
>
  <path fill="#fff"
        fill-rule="evenodd"
        clip-rule="evenodd"
        d="M88 0
           C75 31 58 64 39 98
           C19 134 0 163 0 183
           C0 229 38 262 88 262
           C137 262 174 229 174 183
           C174 162 155 133 136 98
           C117 64 101 31 88 0
           Z

           M40 161
           C32 169 25 183 28 198
           C32 215 47 227 67 229
           C72 230 76 226 73 222
           C56 207 47 188 44 165
           C44 160 42 159 40 161
           Z"
  />
</svg>
