<?xml version="1.0" encoding="UTF-8"?>
<svg xmlns="http://www.w3.org/2000/svg"
     width="334"
     height="307"
>
    <g fill="#fff">
        <polygon points="61,187 4,285 106,285 86,276 74,265 39,264 66,217"/>
        <polygon points="272,187 267,217 294,264 259,265 247,276 227,285 329,285"/>
        <polygon points="166,4 133,62 157,59 166,44 176,59 200,62"/>
        <path d="M 155.54 79.66 C 153.35 79.82, 151.14 80.01, 148.94 80.24 C 146.75 80.48, 144.55 80.74, 142.39 81.07 C 140.22 81.41, 138.07 81.78, 135.98 82.24 C 133.88 82.70, 131.82 83.23, 129.81 83.84 C 127.81 84.45, 125.86 85.14, 123.94 85.91 C 122.03 86.69, 120.16 87.54, 118.32 88.47 C 116.47 89.40, 114.67 90.42, 112.88 91.51 C 111.09 92.60, 109.32 93.77, 107.58 95.02 C 105.83 96.27, 104.09 97.60, 102.42 99.00 C 100.74 100.40, 99.09 101.87, 97.52 103.41 C 95.96 104.94, 94.44 106.55, 93.03 108.21 C 91.62 109.87, 90.28 111.60, 89.06 113.38 C 87.85 115.16, 86.74 117.00, 85.75 118.87 C 84.76 120.75, 83.89 122.68, 83.12 124.64 C 82.35 126.61, 81.70 128.61, 81.14 130.64 C 80.58 132.67, 80.14 134.73, 79.78 136.81 C 79.42 138.89, 79.17 140.99, 78.98 143.11 C 78.79 145.22, 78.70 147.36, 78.64 149.51 C 78.58 151.66, 78.59 153.83, 78.62 156.02 C 78.65 158.21, 78.71 160.41, 78.79 162.62 C 78.88 164.83, 78.97 167.07, 79.11 169.28 C 79.26 171.49, 79.42 173.72, 79.64 175.90 C 79.87 178.08, 80.13 180.25, 80.46 182.38 C 80.79 184.51, 81.18 186.59, 81.60 188.67 C 82.01 190.74, 82.49 192.77, 82.94 194.81 C 83.40 196.84, 83.90 198.86, 84.35 200.89 C 84.81 202.93, 85.27 204.95, 85.68 207.01 C 86.08 209.07, 86.47 211.13, 86.76 213.24 C 87.06 215.35, 87.32 217.48, 87.47 219.68 C 87.62 221.87, 87.68 224.11, 87.64 226.40 C 87.61 228.69, 87.38 231.10, 87.27 233.43 C 87.15 235.75, 86.91 238.15, 86.96 240.36 C 87.01 242.57, 87.07 244.76, 87.55 246.68 C 88.03 248.60, 88.76 250.37, 89.85 251.88 C 90.95 253.40, 92.48 254.65, 94.12 255.79 C 95.76 256.94, 97.74 257.86, 99.70 258.75 C 101.67 259.65, 103.85 260.38, 105.91 261.16 C 107.96 261.93, 110.09 262.60, 112.02 263.39 C 113.95 264.18, 115.81 264.92, 117.48 265.90 C 119.15 266.88, 120.70 267.90, 122.02 269.24 C 123.35 270.59, 124.51 272.08, 125.41 273.99 C 126.31 275.90, 126.90 278.35, 127.42 280.69 C 127.94 283.02, 128.01 286.26, 128.53 288.01 C 129.06 289.77, 129.72 290.94, 130.56 291.21 C 131.39 291.47, 132.64 290.39, 133.54 289.60 C 134.45 288.80, 135.30 287.18, 135.99 286.43 C 136.68 285.68, 137.12 284.74, 137.69 285.12 C 138.25 285.50, 138.71 287.13, 139.38 288.71 C 140.04 290.29, 140.76 293.25, 141.69 294.60 C 142.62 295.94, 143.87 296.72, 144.94 296.78 C 146.02 296.84, 147.25 295.81, 148.13 294.97 C 149.01 294.12, 149.60 292.27, 150.23 291.72 C 150.87 291.16, 151.30 290.86, 151.95 291.62 C 152.61 292.39, 153.27 294.85, 154.18 296.29 C 155.09 297.73, 156.22 299.70, 157.40 300.27 C 158.59 300.85, 160.15 300.54, 161.30 299.74 C 162.45 298.95, 163.50 296.89, 164.29 295.51 C 165.09 294.13, 165.53 291.94, 166.07 291.48 C 166.60 291.03, 166.89 291.79, 167.49 292.78 C 168.09 293.76, 168.70 296.10, 169.66 297.38 C 170.62 298.67, 172.01 300.12, 173.24 300.47 C 174.47 300.81, 175.94 300.47, 177.04 299.44 C 178.14 298.42, 179.07 295.78, 179.85 294.31 C 180.64 292.85, 181.15 290.99, 181.75 290.64 C 182.35 290.30, 182.74 291.28, 183.46 292.24 C 184.19 293.19, 185.10 295.56, 186.11 296.37 C 187.12 297.19, 188.48 297.78, 189.52 297.13 C 190.57 296.48, 191.58 294.26, 192.38 292.47 C 193.18 290.69, 193.72 287.70, 194.31 286.42 C 194.90 285.13, 195.33 284.57, 195.92 284.78 C 196.51 284.99, 197.07 286.67, 197.87 287.68 C 198.66 288.68, 199.74 290.29, 200.67 290.80 C 201.60 291.30, 202.72 291.63, 203.44 290.72 C 204.15 289.80, 204.47 287.48, 204.94 285.33 C 205.41 283.17, 205.61 280.04, 206.26 277.80 C 206.91 275.56, 207.76 273.59, 208.82 271.90 C 209.89 270.22, 211.20 268.91, 212.65 267.71 C 214.10 266.51, 215.77 265.59, 217.54 264.70 C 219.32 263.81, 221.30 263.12, 223.31 262.38 C 225.32 261.63, 227.53 260.99, 229.61 260.23 C 231.68 259.46, 233.85 258.72, 235.74 257.78 C 237.63 256.84, 239.49 255.85, 240.94 254.57 C 242.39 253.30, 243.63 251.85, 244.45 250.13 C 245.27 248.40, 245.62 246.34, 245.85 244.20 C 246.08 242.07, 245.91 239.66, 245.82 237.32 C 245.73 234.97, 245.40 232.47, 245.28 230.13 C 245.17 227.79, 245.06 225.47, 245.14 223.28 C 245.21 221.09, 245.44 219.04, 245.72 216.99 C 246.00 214.95, 246.40 213.00, 246.80 211.01 C 247.19 209.02, 247.67 207.08, 248.10 205.07 C 248.54 203.06, 248.99 201.02, 249.42 198.96 C 249.85 196.89, 250.28 194.79, 250.68 192.67 C 251.08 190.55, 251.47 188.40, 251.83 186.24 C 252.18 184.08, 252.53 181.89, 252.83 179.70 C 253.13 177.51, 253.41 175.30, 253.64 173.10 C 253.88 170.89, 254.08 168.67, 254.23 166.46 C 254.38 164.25, 254.49 162.04, 254.55 159.84 C 254.60 157.63, 254.61 155.43, 254.55 153.25 C 254.50 151.07, 254.39 148.89, 254.20 146.74 C 254.02 144.59, 253.78 142.46, 253.46 140.35 C 253.14 138.25, 252.76 136.17, 252.29 134.12 C 251.82 132.07, 251.27 130.05, 250.63 128.07 C 250.00 126.09, 249.28 124.15, 248.46 122.25 C 247.65 120.36, 246.74 118.50, 245.73 116.70 C 244.72 114.90, 243.61 113.14, 242.40 111.44 C 241.20 109.75, 239.88 108.10, 238.49 106.52 C 237.10 104.93, 235.61 103.40, 234.05 101.94 C 232.50 100.48, 230.86 99.07, 229.16 97.73 C 227.47 96.40, 225.70 95.12, 223.88 93.92 C 222.07 92.71, 220.19 91.58, 218.28 90.51 C 216.38 89.45, 214.41 88.46, 212.43 87.54 C 210.45 86.62, 208.43 85.78, 206.40 85.02 C 204.36 84.26, 202.30 83.57, 200.24 82.97 C 198.18 82.37, 196.11 81.85, 194.02 81.40 C 191.94 80.95, 189.85 80.58, 187.75 80.27 C 185.65 79.96, 183.54 79.73, 181.43 79.54 C 179.31 79.36, 177.18 79.24, 175.04 79.16 C 172.90 79.09, 170.76 79.07, 168.60 79.09 C 166.44 79.11, 164.28 79.17, 162.10 79.27 C 159.93 79.36, 157.74 79.50, 155.54 79.66 Z M 164.34 238.45 C 165.11 237.96, 165.99 237.49, 166.79 237.41 C 167.59 237.34, 168.42 237.48, 169.14 237.99 C 169.87 238.49, 170.51 239.50, 171.14 240.42 C 171.77 241.34, 172.34 242.55, 172.91 243.50 C 173.47 244.46, 174.04 245.33, 174.53 246.17 C 175.02 247.02, 175.49 247.76, 175.84 248.59 C 176.19 249.41, 176.49 250.20, 176.63 251.12 C 176.77 252.05, 176.80 253.08, 176.68 254.13 C 176.57 255.18, 176.31 256.42, 175.95 257.43 C 175.59 258.44, 175.10 259.51, 174.54 260.21 C 173.97 260.91, 173.28 261.49, 172.57 261.62 C 171.85 261.74, 170.96 261.47, 170.25 260.96 C 169.54 260.45, 168.77 259.51, 168.32 258.57 C 167.87 257.62, 167.73 256.37, 167.54 255.29 C 167.35 254.22, 167.37 252.89, 167.19 252.13 C 167.00 251.37, 166.68 250.69, 166.45 250.75 C 166.21 250.80, 165.98 251.67, 165.80 252.47 C 165.63 253.26, 165.62 254.44, 165.38 255.52 C 165.14 256.61, 164.85 257.98, 164.38 258.98 C 163.92 259.98, 163.26 261.09, 162.58 261.52 C 161.91 261.94, 161.05 261.90, 160.31 261.55 C 159.58 261.21, 158.75 260.24, 158.17 259.44 C 157.59 258.65, 157.14 257.68, 156.85 256.78 C 156.56 255.88, 156.45 254.96, 156.42 254.04 C 156.40 253.11, 156.52 252.18, 156.70 251.23 C 156.88 250.28, 157.17 249.31, 157.50 248.34 C 157.83 247.38, 158.23 246.38, 158.69 245.44 C 159.15 244.50, 159.66 243.56, 160.24 242.71 C 160.81 241.85, 161.44 241.02, 162.12 240.31 C 162.81 239.60, 163.56 238.93, 164.34 238.45 Z M 227.84 210.88 C 229.05 210.79, 230.34 210.69, 231.44 210.83 C 232.54 210.97, 233.65 211.16, 234.43 211.71 C 235.22 212.25, 235.81 213.06, 236.15 214.09 C 236.49 215.12, 236.50 216.53, 236.47 217.88 C 236.44 219.24, 236.20 220.80, 235.97 222.20 C 235.74 223.60, 235.44 224.99, 235.10 226.30 C 234.75 227.61, 234.36 228.87, 233.90 230.07 C 233.45 231.26, 232.94 232.40, 232.37 233.48 C 231.80 234.55, 231.17 235.56, 230.47 236.51 C 229.77 237.45, 229.01 238.33, 228.18 239.13 C 227.35 239.94, 226.45 240.67, 225.50 241.34 C 224.54 242.01, 223.52 242.60, 222.47 243.13 C 221.41 243.66, 220.29 244.12, 219.15 244.51 C 218.00 244.91, 216.81 245.23, 215.59 245.49 C 214.38 245.75, 213.12 245.95, 211.86 246.08 C 210.59 246.21, 209.30 246.28, 208.00 246.28 C 206.70 246.29, 205.38 246.23, 204.07 246.11 C 202.76 245.99, 201.43 245.81, 200.13 245.57 C 198.82 245.32, 197.51 245.02, 196.22 244.66 C 194.94 244.30, 193.65 243.88, 192.42 243.40 C 191.19 242.92, 189.97 242.38, 188.84 241.78 C 187.71 241.18, 186.62 240.52, 185.65 239.80 C 184.68 239.07, 183.77 238.29, 183.02 237.44 C 182.27 236.59, 181.61 235.67, 181.13 234.69 C 180.65 233.71, 180.29 232.64, 180.15 231.55 C 180.01 230.46, 179.98 229.19, 180.31 228.15 C 180.64 227.11, 181.31 226.08, 182.15 225.30 C 183.00 224.52, 184.24 223.97, 185.37 223.47 C 186.50 222.97, 187.73 222.66, 188.93 222.32 C 190.13 221.99, 191.36 221.76, 192.57 221.44 C 193.78 221.13, 194.98 220.82, 196.17 220.46 C 197.37 220.11, 198.54 219.71, 199.72 219.31 C 200.89 218.91, 202.06 218.49, 203.22 218.06 C 204.39 217.63, 205.54 217.19, 206.70 216.75 C 207.85 216.32, 209.01 215.87, 210.16 215.45 C 211.32 215.02, 212.47 214.60, 213.63 214.20 C 214.79 213.80, 215.95 213.42, 217.12 213.06 C 218.28 212.71, 219.45 212.38, 220.64 212.10 C 221.82 211.81, 223.00 211.55, 224.21 211.35 C 225.41 211.15, 226.64 210.96, 227.84 210.88 Z M 99.63 211.47 C 100.37 210.86, 101.28 210.52, 102.27 210.33 C 103.26 210.14, 104.40 210.20, 105.57 210.34 C 106.74 210.48, 108.03 210.81, 109.30 211.16 C 110.57 211.51, 111.92 212.00, 113.22 212.45 C 114.51 212.89, 115.84 213.41, 117.09 213.85 C 118.34 214.28, 119.54 214.69, 120.72 215.07 C 121.89 215.46, 123.01 215.80, 124.13 216.14 C 125.25 216.48, 126.33 216.79, 127.42 217.13 C 128.51 217.46, 129.58 217.78, 130.67 218.14 C 131.77 218.49, 132.86 218.86, 133.98 219.26 C 135.11 219.66, 136.25 220.11, 137.43 220.53 C 138.61 220.95, 139.82 221.40, 141.08 221.80 C 142.33 222.19, 143.69 222.52, 144.97 222.91 C 146.25 223.29, 147.63 223.58, 148.73 224.09 C 149.84 224.60, 150.89 225.17, 151.59 225.97 C 152.30 226.77, 152.74 227.83, 152.96 228.88 C 153.18 229.94, 153.13 231.19, 152.91 232.30 C 152.69 233.40, 152.22 234.54, 151.63 235.52 C 151.03 236.50, 150.22 237.37, 149.35 238.18 C 148.48 238.99, 147.44 239.70, 146.39 240.38 C 145.33 241.05, 144.19 241.65, 143.04 242.21 C 141.88 242.77, 140.68 243.28, 139.46 243.73 C 138.24 244.18, 136.99 244.57, 135.72 244.91 C 134.46 245.25, 133.17 245.53, 131.88 245.75 C 130.59 245.97, 129.28 246.13, 127.98 246.23 C 126.69 246.33, 125.38 246.36, 124.10 246.34 C 122.82 246.31, 121.54 246.22, 120.29 246.06 C 119.04 245.90, 117.80 245.67, 116.61 245.38 C 115.41 245.08, 114.23 244.72, 113.11 244.29 C 111.99 243.85, 110.90 243.35, 109.87 242.77 C 108.83 242.19, 107.85 241.54, 106.92 240.82 C 105.99 240.10, 105.11 239.30, 104.29 238.45 C 103.48 237.59, 102.71 236.67, 102.01 235.68 C 101.31 234.70, 100.67 233.65, 100.09 232.54 C 99.51 231.43, 98.99 230.26, 98.54 229.04 C 98.10 227.82, 97.70 226.52, 97.41 225.23 C 97.12 223.93, 96.89 222.57, 96.81 221.27 C 96.73 219.96, 96.74 218.61, 96.92 217.39 C 97.09 216.18, 97.39 214.94, 97.84 213.95 C 98.29 212.97, 98.89 212.07, 99.63 211.47 Z"/>
    </g>
</svg>
